<mxfile host="app.diagrams.net" agent="Mozilla/5.0 (Windows NT 10.0; Win64; x64) AppleWebKit/537.36 (KHTML, like Gecko) Chrome/140.0.0.0 Safari/537.36" version="28.2.0">
  <diagram name="Page-1" id="okOeVOQCBTs2-Ja9q48M">
    <mxGraphModel dx="1028" dy="1654" grid="1" gridSize="10" guides="1" tooltips="1" connect="1" arrows="1" fold="1" page="1" pageScale="1" pageWidth="850" pageHeight="1100" math="0" shadow="0">
      <root>
        <mxCell id="0" />
        <mxCell id="1" parent="0" />
        <mxCell id="RFrMCy6UkMZMa8UCq8qx-3" style="edgeStyle=orthogonalEdgeStyle;rounded=0;orthogonalLoop=1;jettySize=auto;html=1;exitX=0.5;exitY=1;exitDx=0;exitDy=0;" edge="1" parent="1" source="RFrMCy6UkMZMa8UCq8qx-1" target="RFrMCy6UkMZMa8UCq8qx-2">
          <mxGeometry relative="1" as="geometry" />
        </mxCell>
        <mxCell id="RFrMCy6UkMZMa8UCq8qx-1" value="develop" style="ellipse;whiteSpace=wrap;html=1;" vertex="1" parent="1">
          <mxGeometry x="330" y="-10" width="120" height="70" as="geometry" />
        </mxCell>
        <mxCell id="RFrMCy6UkMZMa8UCq8qx-5" style="edgeStyle=orthogonalEdgeStyle;rounded=0;orthogonalLoop=1;jettySize=auto;html=1;exitX=0.5;exitY=1;exitDx=0;exitDy=0;" edge="1" parent="1" source="RFrMCy6UkMZMa8UCq8qx-2" target="RFrMCy6UkMZMa8UCq8qx-4">
          <mxGeometry relative="1" as="geometry" />
        </mxCell>
        <mxCell id="RFrMCy6UkMZMa8UCq8qx-2" value="build" style="ellipse;whiteSpace=wrap;html=1;" vertex="1" parent="1">
          <mxGeometry x="330" y="190" width="120" height="80" as="geometry" />
        </mxCell>
        <mxCell id="RFrMCy6UkMZMa8UCq8qx-7" style="edgeStyle=orthogonalEdgeStyle;rounded=0;orthogonalLoop=1;jettySize=auto;html=1;exitX=0.5;exitY=1;exitDx=0;exitDy=0;" edge="1" parent="1" source="RFrMCy6UkMZMa8UCq8qx-4" target="RFrMCy6UkMZMa8UCq8qx-6">
          <mxGeometry relative="1" as="geometry" />
        </mxCell>
        <mxCell id="RFrMCy6UkMZMa8UCq8qx-4" value="test" style="ellipse;whiteSpace=wrap;html=1;" vertex="1" parent="1">
          <mxGeometry x="330" y="360" width="120" height="80" as="geometry" />
        </mxCell>
        <mxCell id="RFrMCy6UkMZMa8UCq8qx-9" style="edgeStyle=orthogonalEdgeStyle;rounded=0;orthogonalLoop=1;jettySize=auto;html=1;exitX=0.5;exitY=1;exitDx=0;exitDy=0;" edge="1" parent="1" source="RFrMCy6UkMZMa8UCq8qx-6" target="RFrMCy6UkMZMa8UCq8qx-8">
          <mxGeometry relative="1" as="geometry" />
        </mxCell>
        <mxCell id="RFrMCy6UkMZMa8UCq8qx-6" value="release" style="ellipse;whiteSpace=wrap;html=1;" vertex="1" parent="1">
          <mxGeometry x="330" y="520" width="120" height="80" as="geometry" />
        </mxCell>
        <mxCell id="RFrMCy6UkMZMa8UCq8qx-11" value="" style="edgeStyle=orthogonalEdgeStyle;rounded=0;orthogonalLoop=1;jettySize=auto;html=1;" edge="1" parent="1" source="RFrMCy6UkMZMa8UCq8qx-8" target="RFrMCy6UkMZMa8UCq8qx-10">
          <mxGeometry relative="1" as="geometry" />
        </mxCell>
        <mxCell id="RFrMCy6UkMZMa8UCq8qx-8" value="deploy" style="ellipse;whiteSpace=wrap;html=1;" vertex="1" parent="1">
          <mxGeometry x="330" y="690" width="120" height="80" as="geometry" />
        </mxCell>
        <mxCell id="RFrMCy6UkMZMa8UCq8qx-14" style="edgeStyle=orthogonalEdgeStyle;rounded=0;orthogonalLoop=1;jettySize=auto;html=1;" edge="1" parent="1" source="RFrMCy6UkMZMa8UCq8qx-10" target="RFrMCy6UkMZMa8UCq8qx-15">
          <mxGeometry relative="1" as="geometry">
            <mxPoint x="480" y="890" as="targetPoint" />
          </mxGeometry>
        </mxCell>
        <mxCell id="RFrMCy6UkMZMa8UCq8qx-10" value="operate" style="ellipse;whiteSpace=wrap;html=1;" vertex="1" parent="1">
          <mxGeometry x="330" y="850" width="120" height="80" as="geometry" />
        </mxCell>
        <mxCell id="RFrMCy6UkMZMa8UCq8qx-13" value="" style="edgeStyle=orthogonalEdgeStyle;rounded=0;orthogonalLoop=1;jettySize=auto;html=1;" edge="1" parent="1" target="RFrMCy6UkMZMa8UCq8qx-1">
          <mxGeometry relative="1" as="geometry">
            <mxPoint x="390" y="-110" as="sourcePoint" />
          </mxGeometry>
        </mxCell>
        <mxCell id="RFrMCy6UkMZMa8UCq8qx-15" value="monitor" style="ellipse;whiteSpace=wrap;html=1;" vertex="1" parent="1">
          <mxGeometry x="330" y="1040" width="120" height="80" as="geometry" />
        </mxCell>
        <mxCell id="RFrMCy6UkMZMa8UCq8qx-18" value="" style="edgeStyle=orthogonalEdgeStyle;rounded=0;orthogonalLoop=1;jettySize=auto;html=1;" edge="1" parent="1" source="RFrMCy6UkMZMa8UCq8qx-16">
          <mxGeometry relative="1" as="geometry">
            <mxPoint x="390" y="-100" as="targetPoint" />
          </mxGeometry>
        </mxCell>
        <mxCell id="RFrMCy6UkMZMa8UCq8qx-16" value="plan" style="ellipse;whiteSpace=wrap;html=1;" vertex="1" parent="1">
          <mxGeometry x="330" y="-260" width="120" height="80" as="geometry" />
        </mxCell>
      </root>
    </mxGraphModel>
  </diagram>
</mxfile>
